<?xml version="1.0" encoding="UTF-8"?>
<svg id="Camada_2" data-name="Camada 2" xmlns="http://www.w3.org/2000/svg" viewBox="0 0 1621.61 233.99">
  <defs>
    <style>
      .cls-1 {
        fill: #1f75aa;
      }

      .cls-1, .cls-2 {
        stroke-width: 0px;
      }

      .cls-2 {
        fill: #3c3c3b;
      }
    </style>
  </defs>
  <g id="Camada_1-2" data-name="Camada 1">
    <g>
      <g>
        <g>
          <path class="cls-2" d="m0,187.53L139.57,17.75H2.31V0h160.67v15.75L25.14,185.52h137.55v17.75H0v-15.75Z"/>
          <path class="cls-2" d="m274.82,203.28c-14.26,0-27.31-2.87-39.16-8.61-11.85-5.74-22.01-13.36-30.49-22.87-8.48-9.5-15.03-20.37-19.65-32.61-4.62-12.23-6.94-24.75-6.94-37.55s2.46-26.16,7.37-38.4c4.91-12.23,11.7-23.05,20.37-32.47,8.67-9.41,18.88-16.89,30.63-22.44,11.75-5.55,24.47-8.33,38.15-8.33s27.31,2.97,39.16,8.89c11.84,5.93,21.96,13.69,30.34,23.29,8.38,9.6,14.88,20.47,19.51,32.61,4.62,12.14,6.94,24.52,6.94,37.12,0,13.37-2.46,26.17-7.37,38.4-4.91,12.24-11.66,23.01-20.23,32.33-8.57,9.32-18.73,16.76-30.49,22.31-11.75,5.55-24.47,8.33-38.14,8.33Zm-76-101.64c0,10.92,1.83,21.41,5.49,31.48,3.66,10.07,8.86,19.01,15.61,26.82,6.74,7.81,14.74,14.02,23.99,18.63,9.25,4.61,19.55,6.92,30.92,6.92s22.05-2.44,31.5-7.34c9.44-4.89,17.43-11.29,23.99-19.2,6.55-7.9,11.61-16.84,15.17-26.82,3.56-9.97,5.35-20.14,5.35-30.49,0-10.91-1.88-21.41-5.64-31.48-3.76-10.07-9.01-18.96-15.75-26.68-6.74-7.71-14.74-13.88-23.99-18.49-9.25-4.61-19.46-6.92-30.63-6.92s-22.06,2.4-31.5,7.2c-9.44,4.8-17.44,11.15-23.99,19.06-6.55,7.9-11.61,16.85-15.17,26.82-3.57,9.98-5.35,20.14-5.35,30.49Z"/>
          <path class="cls-2" d="m491.84,203.28c-14.26,0-27.31-2.87-39.16-8.61-11.85-5.74-22.01-13.36-30.49-22.87-8.48-9.5-15.03-20.37-19.65-32.61-4.62-12.23-6.94-24.75-6.94-37.55s2.46-26.16,7.37-38.4c4.91-12.23,11.7-23.05,20.37-32.47,8.67-9.41,18.88-16.89,30.63-22.44,11.75-5.55,24.47-8.33,38.15-8.33s27.31,2.97,39.16,8.89c11.84,5.93,21.96,13.69,30.34,23.29,8.38,9.6,14.88,20.47,19.51,32.61,4.62,12.14,6.94,24.52,6.94,37.12,0,13.37-2.46,26.17-7.37,38.4-4.91,12.24-11.66,23.01-20.23,32.33-8.57,9.32-18.73,16.76-30.49,22.31-11.75,5.55-24.47,8.33-38.14,8.33Zm-76-101.64c0,10.92,1.83,21.41,5.49,31.48,3.66,10.07,8.86,19.01,15.61,26.82,6.74,7.81,14.74,14.02,23.99,18.63,9.25,4.61,19.55,6.92,30.92,6.92s22.05-2.44,31.5-7.34c9.44-4.89,17.43-11.29,23.99-19.2,6.55-7.9,11.61-16.84,15.17-26.82,3.56-9.97,5.35-20.14,5.35-30.49,0-10.91-1.88-21.41-5.64-31.48-3.76-10.07-9.01-18.96-15.75-26.68-6.74-7.71-14.74-13.88-23.99-18.49-9.25-4.61-19.46-6.92-30.63-6.92s-22.06,2.4-31.5,7.2c-9.44,4.8-17.44,11.15-23.99,19.06-6.55,7.9-11.61,16.85-15.17,26.82-3.57,9.98-5.35,20.14-5.35,30.49Z"/>
          <path class="cls-2" d="m794.38,201.85V36.11l-74.84,128.22h-11.85l-74.84-128.22v165.75h-20.23V0h20.8l80.05,138.17L794.1,0h20.51v201.85h-20.23Z"/>
        </g>
        <g>
          <path class="cls-2" d="m971.91,94.99h0c-7.57-29.37-15.77-45.36-21.53-53.75-1.73-2.13-4.11-3.44-6.61-4.06-.09-.02-.18-.03-.26-.05-.65-.15-1.3-.26-1.95-.3-.23-.02-.46,0-.69-.01-.57-.01-1.13,0-1.68.06-.21.02-.43.07-.64.1-.58.09-1.14.22-1.69.39-.25.08-.48.17-.73.26-.39.15-.76.32-1.12.51-.25.12-.51.2-.75.34-2.08,1.21-3.64,2.94-4.68,4.9-.03.05-.06.1-.09.15-.11.21-.2.42-.3.64-.21.46-.4.95-.54,1.48-.93,3.15-.62,6.65,1.21,9.7l.15.26c.88,1.96,2.09,4.12,3.83,6.54,10.65,14.91,32.3,29.83,37.42,33.4.32.15.48,0,.48,0,.33-.23.17-.56.17-.56Z"/>
          <path class="cls-2" d="m1063.69,67.83c-1.53-2.4-3.78-4.06-6.28-4.97-.39-.16-.8-.29-1.23-.4-.13-.03-.26-.08-.39-.11-.58-.13-1.2-.21-1.85-.24-.43-.03-.87-.01-1.31,0-.04,0-.08,0-.13,0-1.45.07-2.89.37-4.28.96-2.54.89-5.46,2.44-8.86,4.97-14.76,11-29.15,32.83-32.6,37.99-.14.32.02.47.02.47.24.31.57.15.57.15h0c20.89-5.97,34.87-12.01,44.27-17.15.52-.23,1.05-.45,1.55-.76l6.57-3.97c5.85-3.62,7.61-11.22,3.95-16.97Z"/>
          <path class="cls-2" d="m1015.85,45.04c.03-.57.04-1.13-.01-1.69-.04-.41-.12-.81-.2-1.22-.06-.3-.1-.6-.19-.9-.77-2.83-2.56-5.31-5.07-6.98-.13-.09-.25-.18-.39-.26-.48-.29-.99-.55-1.52-.78-.16-.07-.31-.13-.47-.19-.31-.12-.6-.28-.93-.38-1.87-.56-3.76-.62-5.57-.33-1.82.19-3.83.86-5.76,2.47-.11.09-.22.19-.33.28-.22.2-.44.41-.65.64-.99.97-1.83,2.09-2.46,3.37-1.29,2.28-2.45,5.25-3.34,9.22-3.99,17.8-.57,43.62.2,49.76.11.34.33.35.33.35.39.08.54-.25.54-.25h0c12.38-18.52,19.12-32.42,22.8-42.42.07-.2.18-.37.24-.58l.18-.56c.75-2.11,1.33-3.99,1.83-5.74l.29-.92c.05-.18.06-.35.11-.53.1-.37.23-.8.32-1.15.03-.2,0-.39.03-.58.02-.21.02-.42.03-.63Z"/>
        </g>
      </g>
      <g>
        <path class="cls-1" d="m927.58,197.56c-.62.29-1.51.69-2.69,1.18-1.18.49-2.54.98-4.08,1.47-1.54.49-3.28.93-5.23,1.32-1.95.39-4,.59-6.15.59s-4.41-.29-6.46-.88c-2.05-.59-3.85-1.49-5.38-2.72-1.54-1.22-2.77-2.77-3.69-4.63-.92-1.86-1.38-4.01-1.38-6.46v-56.47h-11.08v-7.93h11.08v-24.18h10.46v24.18h18.46v7.93h-18.46v53.68c.2,2.84,1.25,4.92,3.15,6.24,1.9,1.32,4.08,1.98,6.54,1.98,2.97,0,5.59-.46,7.84-1.4,2.25-.93,3.69-1.59,4.31-1.98l2.77,8.08Z"/>
        <path class="cls-1" d="m973.26,202.7c-5.85,0-11.2-1.05-16.07-3.16-4.87-2.1-9.1-4.99-12.69-8.67-3.59-3.67-6.38-7.91-8.38-12.71-2-4.8-3-9.94-3-15.42s1-10.45,3-15.2c2-4.75,4.77-8.91,8.31-12.49,3.54-3.57,7.77-6.41,12.69-8.52,4.92-2.1,10.25-3.16,16-3.16s11.2,1.05,16.07,3.16c4.87,2.11,9.05,4.97,12.54,8.59,3.48,3.62,6.2,7.79,8.15,12.49,1.95,4.7,2.92,9.7,2.92,14.98v2.35c0,.78-.05,1.32-.15,1.62h-68.6c.31,4.11,1.31,7.91,3,11.39,1.69,3.48,3.87,6.49,6.54,9.03,2.67,2.55,5.72,4.53,9.15,5.95,3.43,1.42,7.1,2.13,11,2.13,2.56,0,5.13-.34,7.69-1.03,2.56-.68,4.92-1.62,7.08-2.79,2.15-1.17,4.1-2.62,5.85-4.33,1.74-1.71,3.08-3.6,4-5.66l9.08,2.35c-1.23,2.84-2.98,5.41-5.23,7.71-2.26,2.3-4.87,4.31-7.85,6.02-2.98,1.71-6.26,3.04-9.84,3.97-3.59.93-7.33,1.39-11.23,1.39Zm29.53-43.78c-.31-4.11-1.31-7.86-3-11.24-1.69-3.38-3.85-6.29-6.46-8.74-2.62-2.45-5.64-4.36-9.08-5.73-3.44-1.37-7.1-2.06-11-2.06s-7.59.69-11.08,2.06c-3.49,1.37-6.54,3.28-9.15,5.73-2.61,2.45-4.72,5.39-6.31,8.81-1.59,3.43-2.54,7.15-2.85,11.17h58.91Z"/>
        <path class="cls-1" d="m1023.41,162.75c0-5.38.97-10.48,2.92-15.28,1.95-4.8,4.69-8.98,8.23-12.56,3.54-3.57,7.77-6.39,12.69-8.45,4.92-2.06,10.36-3.09,16.31-3.09,7.59,0,14.2,1.64,19.84,4.92,5.64,3.28,9.9,7.71,12.77,13.29l-10.15,3.08c-2.26-3.92-5.41-6.98-9.46-9.18-4.05-2.2-8.54-3.31-13.46-3.31-4.1,0-7.92.78-11.46,2.35-3.54,1.57-6.61,3.7-9.23,6.39-2.62,2.69-4.67,5.9-6.15,9.62-1.49,3.72-2.23,7.79-2.23,12.19s.77,8.37,2.31,12.19c1.54,3.82,3.64,7.12,6.31,9.92,2.67,2.79,5.77,4.99,9.31,6.61,3.54,1.62,7.31,2.42,11.31,2.42,2.56,0,5.1-.34,7.61-1.03,2.51-.68,4.85-1.64,7-2.86,2.15-1.22,4-2.62,5.54-4.19,1.54-1.57,2.62-3.23,3.23-4.99l10.31,2.94c-1.13,2.74-2.77,5.26-4.92,7.57-2.15,2.3-4.69,4.31-7.61,6.02-2.92,1.71-6.15,3.04-9.69,3.97-3.54.93-7.21,1.39-11,1.39-5.85,0-11.23-1.05-16.15-3.16-4.92-2.1-9.18-4.99-12.77-8.67-3.59-3.67-6.38-7.91-8.38-12.71-2-4.8-3-9.94-3-15.42Z"/>
        <path class="cls-1" d="m1180.77,202.75h-10.46v-44.26c0-9.11-1.41-15.72-4.23-19.83-2.82-4.11-7.15-6.17-13-6.17-3.08,0-6.15.54-9.23,1.62-3.08,1.08-5.92,2.6-8.54,4.55-2.61,1.96-4.95,4.29-7,6.98-2.05,2.69-3.54,5.61-4.46,8.74v48.37h-10.46v-79.72h9.54v19.01c3.28-5.58,7.97-10.09,14.07-13.52,6.1-3.43,12.74-5.14,19.92-5.14,4.41,0,8.15.78,11.23,2.35,3.08,1.57,5.54,3.77,7.38,6.61,1.85,2.84,3.18,6.32,4,10.43.82,4.11,1.23,8.67,1.23,13.66v46.32Z"/>
        <path class="cls-1" d="m1237.22,202.7c-5.85,0-11.18-1.05-16-3.16-4.82-2.1-9-4.97-12.54-8.59-3.54-3.62-6.28-7.83-8.23-12.63-1.95-4.8-2.92-9.84-2.92-15.13s1-10.48,3-15.28c2-4.8,4.77-9.01,8.31-12.63,3.54-3.62,7.72-6.51,12.54-8.67,4.82-2.15,10.1-3.23,15.84-3.23s11.05,1.08,15.92,3.23c4.87,2.15,9.08,5.04,12.61,8.67,3.54,3.62,6.31,7.84,8.31,12.63,2,4.8,3,9.89,3,15.28s-.98,10.33-2.92,15.13c-1.95,4.8-4.69,9.01-8.23,12.63-3.54,3.62-7.74,6.49-12.61,8.59-4.87,2.1-10.23,3.16-16.07,3.16Zm-29.07-39.37c0,4.31.77,8.3,2.31,11.97,1.54,3.67,3.61,6.9,6.23,9.7,2.62,2.79,5.69,4.97,9.23,6.54,3.54,1.57,7.31,2.35,11.31,2.35s7.77-.81,11.31-2.42c3.54-1.62,6.64-3.82,9.31-6.61,2.67-2.79,4.77-6.05,6.31-9.77,1.54-3.72,2.31-7.74,2.31-12.05s-.77-8.2-2.31-11.97c-1.54-3.77-3.64-7.05-6.31-9.84-2.67-2.79-5.77-4.99-9.31-6.61-3.54-1.62-7.31-2.42-11.31-2.42s-7.74.81-11.23,2.42c-3.49,1.62-6.56,3.85-9.23,6.68-2.67,2.84-4.77,6.15-6.31,9.92-1.54,3.77-2.31,7.81-2.31,12.12Z"/>
        <path class="cls-1" d="m1295.05,98.98h10.46v84.92c0,2.84.82,5.07,2.46,6.68,1.64,1.62,3.95,2.42,6.92,2.42,1.13,0,2.46-.15,4-.44,1.54-.29,2.97-.68,4.31-1.18l1.85,8.08c-1.95.78-4.33,1.42-7.15,1.91-2.82.49-5.26.73-7.31.73-4.82,0-8.61-1.3-11.38-3.89-2.77-2.59-4.15-6.24-4.15-10.94v-88.3Z"/>
        <path class="cls-1" d="m1370.58,202.7c-5.85,0-11.18-1.05-16-3.16-4.82-2.1-9-4.97-12.54-8.59-3.54-3.62-6.28-7.83-8.23-12.63-1.95-4.8-2.92-9.84-2.92-15.13s1-10.48,3-15.28c2-4.8,4.77-9.01,8.31-12.63,3.54-3.62,7.72-6.51,12.54-8.67,4.82-2.15,10.1-3.23,15.84-3.23s11.05,1.08,15.92,3.23c4.87,2.15,9.08,5.04,12.61,8.67,3.54,3.62,6.31,7.84,8.31,12.63,2,4.8,3,9.89,3,15.28s-.98,10.33-2.92,15.13c-1.95,4.8-4.69,9.01-8.23,12.63-3.54,3.62-7.74,6.49-12.61,8.59-4.87,2.1-10.23,3.16-16.07,3.16Zm-29.07-39.37c0,4.31.77,8.3,2.31,11.97,1.54,3.67,3.61,6.9,6.23,9.7,2.62,2.79,5.69,4.97,9.23,6.54,3.54,1.57,7.31,2.35,11.31,2.35s7.77-.81,11.31-2.42c3.54-1.62,6.64-3.82,9.31-6.61,2.66-2.79,4.77-6.05,6.31-9.77,1.54-3.72,2.31-7.74,2.31-12.05s-.77-8.2-2.31-11.97c-1.54-3.77-3.64-7.05-6.31-9.84-2.67-2.79-5.77-4.99-9.31-6.61-3.54-1.62-7.31-2.42-11.31-2.42s-7.74.81-11.23,2.42c-3.49,1.62-6.56,3.85-9.23,6.68-2.67,2.84-4.77,6.15-6.31,9.92-1.54,3.77-2.31,7.81-2.31,12.12Z"/>
        <path class="cls-1" d="m1460.1,202.26c-5.54,0-10.59-1.1-15.15-3.3-4.56-2.2-8.51-5.12-11.84-8.74-3.33-3.62-5.92-7.79-7.77-12.49-1.85-4.7-2.77-9.55-2.77-14.54,0-5.29.9-10.36,2.69-15.2,1.79-4.85,4.33-9.08,7.61-12.71,3.28-3.62,7.2-6.51,11.77-8.67,4.56-2.15,9.61-3.23,15.15-3.23,6.87,0,12.82,1.64,17.84,4.92,5.02,3.28,9.33,7.42,12.92,12.41v-16.01h9.38v76.83c0,5.29-1.05,9.96-3.15,14.03-2.1,4.06-4.92,7.47-8.46,10.21-3.54,2.74-7.69,4.8-12.46,6.17-4.77,1.37-9.82,2.06-15.15,2.06-9.23,0-16.67-1.57-22.3-4.7-5.64-3.14-10.21-7.34-13.69-12.63l6.46-4.85c3.18,4.9,7.38,8.49,12.61,10.8,5.23,2.3,10.87,3.45,16.92,3.45,3.9,0,7.59-.51,11.08-1.54,3.49-1.03,6.54-2.55,9.15-4.55,2.62-2.01,4.69-4.55,6.23-7.64,1.54-3.09,2.31-6.68,2.31-10.8v-15.13c-3.08,4.9-7.28,8.76-12.61,11.6-5.33,2.84-10.92,4.26-16.77,4.26Zm2.92-8.37c3.08,0,6.1-.54,9.08-1.62,2.97-1.08,5.67-2.52,8.08-4.33,2.41-1.81,4.43-3.84,6.08-6.1,1.64-2.25,2.72-4.55,3.23-6.9v-23.65c-1.13-2.74-2.67-5.29-4.61-7.64-1.95-2.35-4.15-4.36-6.61-6.02-2.46-1.66-5.1-2.99-7.92-3.97-2.82-.98-5.67-1.47-8.54-1.47-4.51,0-8.54.91-12.07,2.72-3.54,1.81-6.54,4.19-9,7.12-2.46,2.94-4.33,6.27-5.61,9.99-1.28,3.72-1.92,7.49-1.92,11.31,0,4.11.77,8.03,2.31,11.75,1.54,3.72,3.66,6.98,6.38,9.77,2.72,2.79,5.87,4.99,9.46,6.61,3.59,1.62,7.48,2.42,11.69,2.42Z"/>
        <path class="cls-1" d="m1523.01,108.69v-9.71h10.46v9.71h-10.46Zm0,92.55v-76.53h10.46v76.53h-10.46Z"/>
        <path class="cls-1" d="m1576.7,202.7c-3.79,0-7.31-.61-10.54-1.84-3.23-1.22-6.05-2.91-8.46-5.07-2.41-2.15-4.28-4.68-5.61-7.57-1.33-2.89-2-6-2-9.33s.82-6.41,2.46-9.25c1.64-2.84,3.95-5.29,6.92-7.34,2.97-2.06,6.51-3.65,10.61-4.77,4.1-1.12,8.61-1.69,13.54-1.69,4.1,0,8.25.34,12.46,1.03,4.2.69,7.95,1.67,11.23,2.94v-6.9c0-6.76-2-12.12-6-16.08-4-3.97-9.54-5.95-16.61-5.95-4.1,0-8.31.78-12.61,2.35-4.31,1.57-8.67,3.82-13.08,6.76l-3.69-6.61c10.36-6.66,20.41-9.99,30.15-9.99s17.94,2.69,23.69,8.08c5.74,5.39,8.61,12.83,8.61,22.33v34.52c0,2.74,1.28,4.11,3.85,4.11v8.81c-1.74.29-3.08.44-4,.44-2.67,0-4.74-.64-6.23-1.91-1.49-1.27-2.28-3.03-2.38-5.29l-.31-6.02c-3.69,4.6-8.33,8.13-13.92,10.58-5.59,2.45-11.61,3.67-18.07,3.67Zm2.46-7.64c5.43,0,10.43-.98,15-2.94,4.56-1.96,8.02-4.55,10.38-7.79.92-.88,1.61-1.84,2.08-2.86.46-1.03.69-1.98.69-2.86v-12.49c-3.49-1.27-7.1-2.25-10.84-2.94-3.74-.68-7.56-1.03-11.46-1.03-7.38,0-13.38,1.47-18,4.41-4.61,2.94-6.92,6.81-6.92,11.61,0,2.35.49,4.55,1.46,6.61.97,2.06,2.31,3.85,4,5.36,1.69,1.52,3.72,2.72,6.08,3.6,2.36.88,4.87,1.32,7.54,1.32Z"/>
      </g>
    </g>
  </g>
</svg>